<?xml version="1.0" encoding="UTF-8"?>
<svg version="1.1" xmlns="http://www.w3.org/2000/svg" width="284" height="284">
<path d="M0 0 C2.38298354 3.62213498 1.88669516 7.16046296 1.5625 11.375 C2.52929688 11.32859375 3.49609375 11.2821875 4.4921875 11.234375 C13.49020182 10.9849251 21.73070975 10.88897089 28.69140625 17.3515625 C33.47505219 22.66672466 34.87592985 25.76643974 34.7734375 32.91015625 C34.25699945 38.94483045 29.70577447 42.41587106 25.5625 46.375 C28.0375 47.86 28.0375 47.86 30.5625 49.375 C30.47964489 52.19207371 29.98574261 53.90943313 28.078125 56.0078125 C24.93583595 58.78752973 22.68088935 60.44971133 18.5625 61.375 C18.60246094 62.67566406 18.64242187 63.97632812 18.68359375 65.31640625 C18.68263687 70.2089191 17.81756645 74.587626 16.625 79.3125 C14.36354785 88.41424556 13.53659825 97.25354844 13.27270508 106.61889648 C12.60122458 129.32417262 8.48386145 153.67512234 -8.4375 170.375 C-9.76408212 171.38393888 -11.09674634 172.38497101 -12.4375 173.375 C-11.72319824 173.66109131 -11.00889648 173.94718262 -10.27294922 174.24194336 C29.39093873 190.24616559 29.39093873 190.24616559 38.0625 209.125 C38.44486816 209.94556885 38.82723633 210.7661377 39.22119141 211.61157227 C44.88296533 224.10959907 48.23882052 237.08028209 51.5625 250.375 C-23.0175 250.375 -97.5975 250.375 -174.4375 250.375 C-169.0765 224.91025 -169.0765 224.91025 -167.0625 215.9375 C-166.79695313 214.69291016 -166.53140625 213.44832031 -166.2578125 212.16601562 C-163.3614246 199.38034034 -158.63528322 186.88669948 -147.3125 179.4375 C-137.65152099 173.97566992 -126.76011344 169.84929417 -116.09765625 166.82421875 C-112.55143632 165.79166536 -109.82404727 164.66274576 -106.875 162.375 C-102.76605142 159.20027916 -98.34649491 157.86654108 -93.4375 156.375 C-91.02606622 145.59183567 -91.02606622 145.59183567 -93.68505859 135.29296875 C-96.01091117 132.61584801 -98.58491961 130.33725924 -101.25561523 128.01147461 C-113.86279471 117.01672182 -121.83215554 100.87551492 -124.4375 84.375 C-125.12885881 72.98087497 -125.09811728 60.56774073 -117.4375 51.375 C-115.51207094 49.2367343 -113.57103417 47.32300946 -111.4375 45.375 C-110.7775 45.375 -110.1175 45.375 -109.4375 45.375 C-109.52 44.3025 -109.6025 43.23 -109.6875 42.125 C-109.65432368 32.76927904 -105.72735937 24.15103208 -99.4375 17.375 C-98.92445312 16.82070313 -98.41140625 16.26640625 -97.8828125 15.6953125 C-90.18926795 8.29625769 -79.59871131 6.36796272 -69.27294922 6.28759766 C-59.68081785 6.13317698 -51.56442822 4.15091281 -42.52294922 1.0402832 C-28.93605939 -3.60457085 -12.82267172 -8.54844781 0 0 Z " fill="#010101" transform="translate(200.4375,33.625)"/>
<path d="M0 0 C0.9398877 0.00402832 1.87977539 0.00805664 2.84814453 0.01220703 C12.54442333 0.28213178 21.29478609 2.8628663 30.4387207 5.89819336 C40.45191061 9.13446156 50.33825557 9.55044082 60.6875 7.625 C62.33114621 14.83878059 62.25116008 22.39307212 60.6875 29.625 C54.9375 27.75 54.9375 27.75 52.6875 26.625 C48.54246339 26.37712983 48.54246339 26.37712983 44.6875 27.625 C44.6875 29.275 44.6875 30.925 44.6875 32.625 C51.6175 33.12 51.6175 33.12 58.6875 33.625 C59.13614149 49.24769359 59.54698478 64.48619723 56.375 79.875 C56.16206299 80.90810303 55.94912598 81.94120605 55.72973633 83.00561523 C54.66226657 87.70367488 53.68703069 90.81498388 50.6875 94.625 C49.99653979 96.27014335 49.30687058 97.91586482 48.62890625 99.56640625 C43.06965502 111.72294318 35.81431892 119.35287199 23.75 125 C9.33754674 127.94131699 -3.98530349 123.36038628 -16.01123047 115.51708984 C-19.19334786 113.32530116 -22.27477517 111.01178379 -25.3125 108.625 C-20.60118814 114.57613077 -15.35569088 119.05787586 -9.3125 123.625 C-8.3740625 124.34429687 -7.435625 125.06359375 -6.46875 125.8046875 C1.68902064 131.92301548 8.6837549 134.81231437 18.69921875 136.68359375 C22.15760529 137.77309853 23.58524039 138.67683116 25.6875 141.625 C26.61306693 146.56561244 26.80239274 152.05837458 24.76953125 156.73828125 C22.00456244 160.34437326 18.93774201 161.48444167 14.6875 162.625 C-0.30698294 163.82033979 -13.04532942 160.50845545 -25.15234375 151.515625 C-32.90536176 144.77802537 -39.70387474 136.84225052 -44.3125 127.625 C-44.3125 126.965 -44.3125 126.305 -44.3125 125.625 C-44.9725 125.625 -45.6325 125.625 -46.3125 125.625 C-37.2755257 144.17772869 -25.34217997 156.61026197 -5.55859375 163.59765625 C3.2819028 166.3013643 12.0241615 166.9399528 20.8125 163.69140625 C23.86755971 161.95384104 25.00253418 159.65793847 26.6875 156.625 C27.3475 156.625 28.0075 156.625 28.6875 156.625 C28.38158479 149.20919335 27.99645922 142.43192787 25.3203125 135.46875 C24.52037387 133.13806462 24.45114825 131.06730137 24.6875 128.625 C26.5234375 128.86328125 26.5234375 128.86328125 28.6875 129.625 C30.1015625 131.48046875 30.1015625 131.48046875 31.3125 133.8125 C31.71726562 134.56917969 32.12203125 135.32585937 32.5390625 136.10546875 C36.16168503 144.053059 37.5273436 152.78884496 34.84765625 161.2890625 C31.46891022 167.91003957 25.92396138 173.36528323 19.1875 176.5625 C4.84950446 181.10662851 -10.63172752 176.40317482 -23.43896484 169.88745117 C-29.48639075 166.67862781 -34.95439504 162.88543762 -40.3125 158.625 C-41.859375 157.4803125 -41.859375 157.4803125 -43.4375 156.3125 C-51.67328137 148.6138348 -62.12420311 137.00936346 -63.125 125.25 C-61.81088242 119.38701387 -58.45406413 116.2847122 -53.8125 112.6875 C-50.82473183 111.41769853 -48.52707079 111.40072762 -45.3125 111.625 C-45.82285831 116.0140815 -46.83464277 118.96208062 -49.3125 122.625 C-48.3225 122.625 -47.3325 122.625 -46.3125 122.625 C-45.83141725 121.20898286 -45.35271859 119.79215563 -44.875 118.375 C-44.60816406 117.58609375 -44.34132813 116.7971875 -44.06640625 115.984375 C-43.39295292 113.87678012 -42.82099405 111.77746027 -42.3125 109.625 C-41.6525 109.625 -40.9925 109.625 -40.3125 109.625 C-39.9825 99.725 -39.6525 89.825 -39.3125 79.625 C-42.2825 77.975 -45.2525 76.325 -48.3125 74.625 C-53.91644837 69.12482845 -57.31782117 63.54140134 -57.6875 55.5625 C-57.19263669 50.36643527 -56.0416748 46.75321514 -52.6875 42.625 C-48.80727676 40.99122179 -45.30865555 41.48917763 -41.3125 42.625 C-37.01596944 44.98672927 -34.85242199 48.00523403 -33.3125 52.625 C-32.6525 52.955 -31.9925 53.285 -31.3125 53.625 C-31.6425 51.645 -31.9725 49.665 -32.3125 47.625 C-32.9725 47.625 -33.6325 47.625 -34.3125 47.625 C-34.37099554 44.41674438 -34.40626162 41.20862767 -34.4375 38 C-34.46263672 36.64455078 -34.46263672 36.64455078 -34.48828125 35.26171875 C-34.52463675 30.2810147 -34.2417893 26.30206497 -32.3125 21.625 C-31.96273242 20.29588318 -31.62153983 18.96417261 -31.3125 17.625 C-30.6525 17.625 -29.9925 17.625 -29.3125 17.625 C-29.17134766 16.51318359 -29.17134766 16.51318359 -29.02734375 15.37890625 C-28.20142944 12.19710522 -27.17004152 10.88524826 -24.875 8.5625 C-24.25753906 7.91152344 -23.64007813 7.26054688 -23.00390625 6.58984375 C-15.97683737 1.4597775 -8.56477099 -0.1015709 0 0 Z " fill="#FAFAFA" transform="translate(152.3125,82.375)"/>
<path d="M0 0 C2.62756258 1.36852218 5.06943236 2.92001425 7.5546875 4.53125 C10.67202591 6.40364495 13.4660744 7.23175531 17 8 C15.29363463 12.22576365 13.92499965 15.32166692 10.1875 18.0625 C5.00210109 19.58761733 1.5431981 18.81698723 -3.1875 16.3125 C-6.33809023 13.7220147 -8.20096278 11.67003593 -10 8 C-9.875 4.1875 -9.875 4.1875 -9 1 C-5.95192724 -0.52403638 -3.28328156 -0.6578634 0 0 Z " fill="#3A3A3A" transform="translate(168,160)"/>
<path d="M0 0 C0.66 0 1.32 0 2 0 C3.04198001 1.71334323 4.0062566 3.4740346 4.9375 5.25 C12.61058509 18.66603332 23.46757466 29.27583188 38.5625 33.9375 C40.03644115 34.3128206 41.51543613 34.66918558 43 35 C43.61101562 35.18175781 44.22203125 35.36351562 44.8515625 35.55078125 C52.48944512 37.14779307 61.27496087 37.18446879 68 33 C71.4208764 29.5381059 71.50361822 26.37258741 71.75 21.625 C71.82734375 20.33851563 71.9046875 19.05203125 71.984375 17.7265625 C71.9986109 14.33130138 71.6779962 11.31807232 71 8 C75.52148915 12.52148915 75.125 18.39169355 75.125 24.4375 C75.0930633 26.62516369 75.05460454 28.81278471 75 31 C74.34 31 73.68 31 73 31 C72.62875 32.1446875 72.62875 32.1446875 72.25 33.3125 C70.32115191 37.45952339 68.13926711 38.55824336 63.9375 40.1875 C50.27538444 43.57408373 36.76785169 38.68422162 24.9609375 31.89453125 C13.91898606 24.82943039 5.36992074 13.95240423 0 2 C0 1.34 0 0.68 0 0 Z " fill="#262626" transform="translate(106,208)"/>
<path d="M0 0 C4.95 0.33 9.9 0.66 15 1 C15 1.66 15 2.32 15 3 C13.35 3 11.7 3 10 3 C10.12375 4.1446875 10.12375 4.1446875 10.25 5.3125 C10 8 10 8 8 9.8125 C7.34 10.204375 6.68 10.59625 6 11 C6.495 11.804375 6.99 12.60875 7.5 13.4375 C9.34527349 17.82002454 9.28061086 21.32315231 9 26 C8.34 26 7.68 26 7 26 C6.7525 26.61875 6.505 27.2375 6.25 27.875 C4.74244918 30.4378364 3.79082862 31.04314447 1 32 C-1.75 32.125 -1.75 32.125 -4 32 C-3 30 -3 30 0.0625 28.875 C1.5165625 28.441875 1.5165625 28.441875 3 28 C4.46337644 20.80506585 3.38938778 15.99630031 0.91015625 9.11328125 C0 6 0 6 0 0 Z " fill="#181818" transform="translate(192,127)"/>
<path d="M0 0 C0.99 0.66 1.98 1.32 3 2 C3.1875 5.125 3.1875 5.125 3 8 C-5.39802254 8.12190678 -13.64251778 7.84327749 -22 7 C-22 5.68 -22 4.36 -22 3 C-15.2006689 -0.98009626 -7.67585366 -0.69370978 0 0 Z " fill="#0E0E0E" transform="translate(170,106)"/>
<path d="M0 0 C2.43757413 -0.02698422 4.87484915 -0.04683099 7.3125 -0.0625 C8.00279297 -0.07087891 8.69308594 -0.07925781 9.40429688 -0.08789062 C12.5483025 -0.10307906 14.99420019 -0.00193327 18 1 C18 1.66 18 2.32 18 3 C15.69 3 13.38 3 11 3 C11.061875 4.175625 11.061875 4.175625 11.125 5.375 C11 8 11 8 9 10 C6.4375 10.1875 6.4375 10.1875 4 10 C3 9 3 9 2.9375 5.9375 C2.958125 4.968125 2.97875 3.99875 3 3 C2.01 3 1.02 3 0 3 C0 2.01 0 1.02 0 0 Z " fill="#161616" transform="translate(149,125)"/>
<path d="M0 0 C5.100073 0.39231331 8.56567521 2.25717943 12.8515625 4.84375 C14.91893752 5.95637365 16.70810284 6.54369468 19 7 C19 8.32 19 9.64 19 11 C12.09974532 10.4981633 5.05462339 9.05462339 0 4 C0 2.68 0 1.36 0 0 Z " fill="#EFEFEF" transform="translate(162,162)"/>
<path d="M0 0 C1.32 0 2.64 0 4 0 C7.16727335 5.1468192 7.35050464 9.158256 7 15 C6.34 15 5.68 15 5 15 C4.7525 15.61875 4.505 16.2375 4.25 16.875 C2.74244918 19.4378364 1.79082862 20.04314447 -1 21 C-3.75 21.125 -3.75 21.125 -6 21 C-5 19 -5 19 -1.9375 17.875 C-0.4834375 17.441875 -0.4834375 17.441875 1 17 C2.0748291 10.72532201 1.88341198 6.09339169 0 0 Z " fill="#303030" transform="translate(194,138)"/>
<path d="M0 0 C2.84614024 2.84614024 2.45579076 5.80369142 2.625 9.625 C2.66367188 10.33140625 2.70234375 11.0378125 2.7421875 11.765625 C2.83647724 13.50998524 2.91932891 15.25495691 3 17 C2.34 17 1.68 17 1 17 C-1.10827055 13.83759418 -1.33817465 12.49342531 -1.625 8.8125 C-1.73714844 7.46091797 -1.73714844 7.46091797 -1.8515625 6.08203125 C-1.92503906 5.05142578 -1.92503906 5.05142578 -2 4 C-3.65 4 -5.3 4 -7 4 C-7.33 4.99 -7.66 5.98 -8 7 C-8.66 7 -9.32 7 -10 7 C-10.1875 4.625 -10.1875 4.625 -10 2 C-6.32653229 -0.44897847 -4.33643601 -0.31537716 0 0 Z " fill="#070707" transform="translate(110,132)"/>
<path d="M0 0 C0.66 0 1.32 0 2 0 C3.04198001 1.71334323 4.0062566 3.4740346 4.9375 5.25 C8.99284806 12.46714486 14.23009004 18.11531787 20 24 C19.01 24.66 18.02 25.32 17 26 C9.68939411 18.30962237 3.10336926 10.28932623 0 0 Z " fill="#303030" transform="translate(106,208)"/>
<path d="M0 0 C0.64066406 0.19335938 1.28132812 0.38671875 1.94140625 0.5859375 C6.95110985 2.0940748 11.96539857 3.57717786 17 5 C15.11446939 7.66192556 14.02377907 7.99588439 10.75 8.5625 C5.89939893 7.83490984 3.157205 5.70419797 0 2 C0 1.34 0 0.68 0 0 Z " fill="#F1F1F1" transform="translate(162,169)"/>
<path d="M0 0 C3.98042168 0.58809834 6.86247219 1.82031677 10.3125 3.875 C11.19550781 4.38804687 12.07851562 4.90109375 12.98828125 5.4296875 C13.65214844 5.94789063 14.31601563 6.46609375 15 7 C15 7.99 15 8.98 15 10 C9.40694142 8.60173536 5.28009079 5.75912508 1 2 C0.67 1.34 0.34 0.68 0 0 Z " fill="#202020" transform="translate(124,233)"/>
<path d="M0 0 C1.77388086 1.09926403 3.54399684 2.20460502 5.3125 3.3125 C6.29863281 3.92738281 7.28476563 4.54226562 8.30078125 5.17578125 C10.50172035 6.66324661 12.23328988 8.0403386 14 10 C13.01 10.66 12.02 11.32 11 12 C9.16053461 10.38150935 7.32848583 8.75581169 5.5 7.125 C4.97535156 6.66480469 4.45070312 6.20460937 3.91015625 5.73046875 C2.56858245 4.52827924 1.28000815 3.26754054 0 2 C0 1.34 0 0.68 0 0 Z " fill="#272727" transform="translate(126,190)"/>
<path d="M0 0 C5.69297345 -0.45543788 8.54261819 0.41235123 13 4 C13 4.33 13 4.66 13 5 C10.25203745 5.15266459 8.462586 5.24574881 6 3.9375 C3.34415882 2.69257445 1.76432655 3.23213151 -1 4 C-0.67 2.68 -0.34 1.36 0 0 Z " fill="#232323" transform="translate(161,160)"/>
<path d="M0 0 C1.1446875 1.175625 1.1446875 1.175625 2.3125 2.375 C5.64712543 5.80982943 5.64712543 5.80982943 10.04296875 7.1953125 C10.75066406 7.17210937 11.45835937 7.14890625 12.1875 7.125 C13.445625 7.08375 14.70375 7.0425 16 7 C16.33 7.66 16.66 8.32 17 9 C11.6229574 10.34426065 8.59793766 9.95350808 3.734375 7.2578125 C1.37534613 5.54698526 0.17380526 3.64106183 -1 1 C-0.67 0.67 -0.34 0.34 0 0 Z " fill="#5B5B5B" transform="translate(161,169)"/>
<path d="M0 0 C0.66 0.33 1.32 0.66 2 1 C2.31241371 3.54941373 2.51303421 6.00361513 2.625 8.5625 C2.66367188 9.27341797 2.70234375 9.98433594 2.7421875 10.71679688 C2.83671783 12.47742425 2.91945817 14.23867728 3 16 C2.34 16 1.68 16 1 16 C-1.4294516 12.3558226 -1.16179575 10.28758728 -1 6 C-0.34 6 0.32 6 1 6 C0.67 4.02 0.34 2.04 0 0 Z " fill="#272727" transform="translate(110,133)"/>
<path d="M0 0 C4.86896303 0.59619955 9.32790951 1.56976822 14 3 C13.34 4.32 12.68 5.64 12 7 C11.67 6.01 11.34 5.02 11 4 C9.9275 3.896875 8.855 3.79375 7.75 3.6875 C4.14179128 3.02599507 2.63604977 2.42516579 0 0 Z " fill="#353535" transform="translate(171,165)"/>
<path d="M0 0 C1.32 0 2.64 0 4 0 C4.66 1.98 5.32 3.96 6 6 C5.01 5.67 4.02 5.34 3 5 C3.33 7.31 3.66 9.62 4 12 C1.78600697 8.20458337 0.99019802 4.24370579 0 0 Z " fill="#464646" transform="translate(194,138)"/>
<path d="M0 0 C0.66 1.32 1.32 2.64 2 4 C0.68 5.32 -0.64 6.64 -2 8 C-2.66 7.67 -3.32 7.34 -4 7 C-3.67 6.67 -3.34 6.34 -3 6 C-4.98 5.34 -6.96 4.68 -9 4 C-8.67 3.34 -8.34 2.68 -8 2 C-5.36 2.66 -2.72 3.32 0 4 C0 2.68 0 1.36 0 0 Z " fill="#424242" transform="translate(181,169)"/>
<path d="M0 0 C0.66 0 1.32 0 2 0 C3.65 3.3 5.3 6.6 7 10 C6.01 10 5.02 10 4 10 C3.32845067 8.71086513 2.66291141 7.41859796 2 6.125 C1.62875 5.40570313 1.2575 4.68640625 0.875 3.9453125 C0 2 0 2 0 0 Z " fill="#404040" transform="translate(106,208)"/>
<path d="M0 0 C1.32 0.66 2.64 1.32 4 2 C3.360625 2.268125 2.72125 2.53625 2.0625 2.8125 C-0.33131686 3.88667752 -0.33131686 3.88667752 -1 7 C-1.66 7 -2.32 7 -3 7 C-3.1875 4.625 -3.1875 4.625 -3 2 C-2.01 1.34 -1.02 0.68 0 0 Z " fill="#3B3B3B" transform="translate(103,132)"/>
<path d="M0 0 C0.99 0.33 1.98 0.66 3 1 C1.125 5.75 1.125 5.75 0 8 C-0.99 8 -1.98 8 -3 8 C-2.690625 7.236875 -2.38125 6.47375 -2.0625 5.6875 C-1.32106407 3.81210323 -0.63771783 1.91315348 0 0 Z " fill="#585858" transform="translate(106,197)"/>
<path d="M0 0 C1.66611905 -0.042721 3.33382885 -0.04063832 5 0 C6 1 6 1 6.09765625 3.06640625 C6.08605469 3.89011719 6.07445313 4.71382812 6.0625 5.5625 C6.05347656 6.38878906 6.04445313 7.21507812 6.03515625 8.06640625 C6.01775391 9.02353516 6.01775391 9.02353516 6 10 C5.67 10 5.34 10 5 10 C4.67 7.36 4.34 4.72 4 2 C2.35 2.33 0.7 2.66 -1 3 C-0.67 2.01 -0.34 1.02 0 0 Z " fill="#B4B4B4" transform="translate(103,135)"/>
<path d="M0 0 C0.99 0.33 1.98 0.66 3 1 C3 3.64 3 6.28 3 9 C2.34 8.67 1.68 8.34 1 8 C0.40644386 5.35139573 0.25790731 2.70802678 0 0 Z " fill="#030303" transform="translate(197,143)"/>
<path d="M0 0 C2.31 0 4.62 0 7 0 C6.67 0.66 6.34 1.32 6 2 C3.6859378 2.73075648 1.35171131 3.40138258 -1 4 C-0.67 2.68 -0.34 1.36 0 0 Z " fill="#0B0B0B" transform="translate(161,160)"/>
</svg>
