<svg xmlns="http://www.w3.org/2000/svg"><svg xmlns="http://www.w3.org/2000/svg" width="306" height="306" fill="none" style="z-index: 2; position: absolute; pointer-events: none;"><path fill="#fff" d="M236.1 278.4c-.7.5-1.5 1-2.2 1.5-.8.5-1.5 1-2.3 1.4-.7.4-1.3.8-2 1.2-.1.1-.2.1-.3.2-2.3 1.4-4.7 2.7-7.1 3.9-.7.4-1.5.8-2.2 1.1 0 0-.1.1-.2.1l-2.4 1.2c-1.6.8-3.3 1.5-4.9 2.2-.8.4-1.7.7-2.5 1-.8.3-1.7.7-2.5 1-.8.3-1.7.7-2.5 1h-.1c-.8.3-1.7.6-2.5.9-1.8.6-3.7 1.2-5.5 1.8-.6.2-1.3.4-1.9.6-1.9.6-3.8 1.1-5.7 1.5-.7.2-1.4.3-2.2.5-1.8.4-3.7.8-5.5 1.2-.4.1-.7.1-1.1.2-.6.1-1.3.2-1.9.3-.9.1-1.7.3-2.6.4-.4.1-.8.1-1.2.2-.5.1-1.1.2-1.7.2-1.6.2-3.3.4-4.9.6-.5.1-1.1.1-1.6.2h-.1c-.7.1-1.4.1-2.1.2-.7.1-1.4.1-2.1.1-.4 0-.9.1-1.3.1-.8 0-1.5.1-2.2.1-1 0-1.9.1-2.9.1h-5c-42.2-.6-80.1-18.5-107.2-46.9 0 0 0-.1-.1-.1-3-2.7-.4-17.1 11.7-26.2 15.2-11.5 51.6-18.7 51.6-18.7s14.1-2.3 66.4 8.6c30.6 6.4 53.9 15.7 66.9 40.9 2.7 5.2 5.4 13.2-4.1 17.4Z"></path><path fill="#000" d="M173.6 219c19.2 3.9 39.7 8.1 55.5 20.8 5.3 4.3 8.8 10.6 11.7 16.7 1.4 3 2.8 6.1 3.9 9.4.6 2.2 1.5 4.7 1 7.3-.1.7-.7 1.6-1.2 2.1-2.3 2.3-4.8 3.7-7.3 5.5-14.7 10.2-31.6 17.4-49.1 21.2-39 8.5-81.2 1.9-115.5-18.6-11.4-6.9-21.9-15.3-30.9-25.2-1-1.2-1-3.2-1-4.5.1-3 .9-5.9 1.9-8.6 2.4-6.2 5.5-12.4 10.8-16.7 3.8-2.6 7.9-4.8 12.1-6.6 13.2-5.6 27.1-9.5 41.4-11.1 1.2-.1 1.4 1.6.2 1.8-13.7 2.8-27.3 7-40 12.7-4.6 2.3-9.5 4.3-13.2 7.9-3.5 3.8-6 8.5-8 13.3-1.3 2.9-2.2 7.5-1.8 9.8 6.3 7.5 13.7 14.1 21.7 19.8 43.8 30.6 110.3 32.6 156.9 7.1 4.2-2.3 8.3-4.9 12.2-7.6 1.9-1.3 3.9-2.4 5.4-3.9.1-.1 0 0 0 .1s-.1.2-.1.2c.1-1.2-.3-2.8-.8-4.4-1.8-5.8-4.7-11.9-7.8-17.2-4.9-7.9-13.2-12.9-21.6-16.9-5.8-2.7-11.9-4.8-18.1-6.8-6.2-2-12.5-3.7-18.8-5.2-1.6-.4-1.1-2.7.5-2.4Z"></path></svg><svg xmlns="http://www.w3.org/2000/svg" width="306" height="344" fill="none" style="z-index: 3; position: absolute; pointer-events: none;"><path fill="#000" d="M269.3 340.401H16.4s14.9-31.4 21.5-67.2c4.6-24.8 8-39.3 20.9-47.3 9.1-5.6 28.6-11.4 37-14.4 5.7-2 6.9-.3 11-1.4 0 .5.1.9.1 1.4 0 0 10.8 32.1 38.9 43.5 22.9 9.3 36.5 3.1 38.6-7.2 1.3-6.6-2.8-17.4-4.9-20.9-1.2-1-2-2.5-2.4-4l-.8-3.3c1.9-.4 3.7-.9 5.5-1.5.6-.2 1.1-.4 1.7-.6 11.5 3 36.1 12.7 47 22.7 4.3 4 14.5 24 21.1 53 7.6 32.9 17.7 47.2 17.7 47.2Z"></path><path fill="#000" d="M271.6 341.6c-75.3.5-181 1.7-255.1 1.4-1.8 0-3.1-2-2.3-3.6 8.9-19.6 15.9-40.5 20.4-61.6.5-2.7 1.6-8 2.1-10.7 2.3-11 4.1-21.9 10-32 2-3.3 4.6-6.4 7.7-8.9 3-2.4 6.5-4.2 10-5.8 11.2-4.8 22.5-8.6 34-12.1 2.7-.6 5.4.1 8-.5 1.5-.4 3.1.7 3.2 2.3l.1 1.4-2.7-2.5c1.1 0 2.1.7 2.4 1.7.8 2.3 1.9 4.7 3 7 3.4 6.9 7.6 13.4 12.7 19.1 6.7 7.6 15.1 13.6 24.7 17 9.7 3.6 27 6.7 31.8-4.9.8-2.1.7-4.3.4-6.6-.7-4.7-2.3-9.7-4.6-13.9l.5.6c-1.6-2.1-2.2-4.6-2-7v-2.4c0-.2.2-.4.4-.4 1.2-.4 2.3-.9 3.5-1.3 1.1-.5 2.2-1 3.3-1.6.3-.2.6-.1.9 0 6.6 1.7 12.9 4 19.2 6.6 9.4 3.9 18.7 8.3 26.8 14.6 2.9 2.1 5 5.2 6.7 8.3 3.4 6 6.1 12.2 8.5 18.5 4.2 11 7.3 22.4 10 33.9 3.4 12.7 7.5 25.3 13.8 36.9l2.1 3.6.2.2v.1c.6.5.7 1.9.3 2.6Zm-4.6-2.4c-.5.5-.4 1.9 0 2.4v-.1l-.2-.3c-7-11.5-11.4-24.4-15-37.3-1.8-6.3-3.1-13.1-4.9-19.5-3.5-12.6-7.8-25.3-14.1-36.8-1.1-1.9-2.3-4-3.8-5.5-2.9-2.7-6.3-4.9-9.7-7-5.6-3.3-11.6-6.2-17.7-8.7-6.1-2.5-12.3-4.8-18.6-6.5l1.5-.1c-2.7.2-5.3.3-7.9.2l.4-.6c.6 1 1.3 2.7 1.9 3.6.7.9 1.5 1.6 2.4 2 .2.2.4.4.5.6 3.6 6.9 7.2 17.2 4.6 24.9-6 15.1-26.1 12.7-38.4 8-10.3-3.5-19.6-10.2-26.8-18.4-7.2-8.2-12.9-17.6-16.7-27.8l2.4 1.7c-1.4 0-2.5-1-2.6-2.4l-.1-1.3 3.2 2.3c-1 .3-2.2.4-3.3.5-2.8-.1-4.7-.2-7.3.8-3.4 1.2-6.9 2.4-10.4 3.5-6.9 2.3-13.7 4.7-20.2 7.6-14.8 5.9-19.1 17.7-22.5 32.4-1.6 6.8-2.9 14.5-4.3 21.4-4.6 21.6-11.6 42.5-20.7 62.7l-2.3-3.7c72.5 0 177.1.7 250.6 1.4Z"></path><path fill="#fff" d="M137.2 265.5c-34.5-15.5-47.9-43.2-45.3-50.7 0 0 0-.1.1-.2 1.8-3.7 4.7-6.7 8.3-8.8 2-1.2 4.2-2.3 6-2.9 27.3-6.8 63.5 4.7 75.7 15.2 4.4 5.3 8.9 10.6 10.6 24.6 2.4 20.2-19.7 38.9-55.4 22.8Z"></path><path fill="#000" d="M136.7 266.6c-17.3-7.8-33.5-20-42.7-36.9-1.8-3.5-3.4-7.1-3.9-11.2-.1-1.4-.2-3.1.5-4.5 2.1-4.2 5.9-7.5 10.1-9.5 3.2-1.7 6.7-2.9 10.2-4 5-.9 10-1.2 15.1-1.1 16.7.5 33.3 4.9 48.1 12.6 1.1.6 2.2 1.2 3.3 1.9.4.2.7.5 1.2.4.5-.1.9.1 1.3.3 1.2.7 2.2 1.6 3.3 2.6 2.7 3.3 5.4 6.8 7.2 10.8 1.8 4 2.8 8.3 3.4 12.5 1.6 8.6-1.3 18.2-8 24.1-13.6 12.2-34 8.9-49.1 2Zm.9-2.1c11.2 4.9 24 8 35.9 4.2 9.6-2.9 17.5-11.6 17.8-21.8.1-6-1.3-12.3-3.7-17.8-1.3-3.4-4.9-7.7-6.7-9.9-1.1-.9-2.3-1.6-3.3-2.5l-.3-.6c-.2-.5-.6-.6-.9-.9-1-.6-2.1-1.2-3.2-1.8-8.7-4.5-18.3-7.1-27.9-9-11.2-2.1-22.7-2.7-34-1.1-1.6.2-3.3 0-4.9.4-1.2.5-3.4 1.5-4.8 2.5-3.6 2.1-6.3 5.2-8.2 8.9l-.1.1c0 .1-.1.3-.1.4-.5 4.2 1.5 8.5 3.4 12.4 1.7 3.2 3.7 6.3 6 9.3 9.2 11.9 21.5 21.1 35 27.2Z"></path></svg><svg xmlns="http://www.w3.org/2000/svg" width="306" height="306" fill="none" style="z-index: 4; position: absolute; pointer-events: none;"><path fill="#fff" d="M182.999 245.6c-2.1 10.3-15.7 16.5-38.6 7.2-23.8-9.6-34.1-32.5-36.7-39.3 14.1-26.4 4.3-44.7 4.3-44.7 32.5-2.8 60.9 35.2 60.9 35.2l4.4 18.8c.4 1.6 1.2 3 2.4 4 2.1 3.7 4.6 12.2 3.3 18.8Z"></path><path fill="#000" d="M107.2 213.8c1.9-2.9 3.1-6.3 3.9-9.6 1.5-6.9 2-13.9 2.1-20.9v-2.6c-.3-2.6-1.2-5.3-2.2-7.7-1.3-3.2 3.4-5.2 4.9-2 .2.4.2 1.1.2 1.5.3 13.6.9 31.1-7.7 42.4-.6.6-1.8-.3-1.2-1.1ZM173.999 203.8c1.5.9 2 2.1 2.2 3.3.6 2.4.4 5 1 7.5.5 2.4 2 4.7 2.4 7.2.5 2.6 2 8.1 2.6 10.8.2.6-.2 1.3-.9 1.4-.4.1-.7 0-1-.2-1.3-1.1-1.9-2.2-2.7-3.6-1.3-2.4-2.2-4.6-3-7.3-.7-2.4-.4-5-1-7.5-.5-2.4-1.9-4.7-2.4-7.2-.3-1.2-.4-2.5.5-4 .6-.6 1.6-.8 2.3-.4Z"></path><path fill="#000" d="M181.2 230.2c-19.1-1-34.7-7-49.9-34.1 12.8 11.3 27.9 15.6 43.8 17.6l2.1 9.2c.4 1.6 2.8 6.3 4 7.3Z"></path><path fill="#000" d="M180.4 226.5c3.4 6.4 5.4 14.4 3.3 21.5-1.6 5-6.2 8.7-11.2 10.1-11.6 3.1-25-1.8-35.3-7.3-12.7-7.1-22.1-19-28.1-32-.4-1 1-1.8 1.6-.8 2.1 4.2 4.5 8.3 7.2 12 2.7 3.8 5.8 7.3 9.3 10.4 10.2 9.2 24 14.9 37.8 14.9 14.2-.4 19.6-7.9 16.3-21.7-.5-2.2-1.3-4.5-2.4-6.4-.6-.8.9-1.7 1.5-.7Z"></path><path fill="#fff" d="M219.1 106.4c1.8 8.4-4.2 17.4-4.2 39.8 0 22.9-4.2 47.8-21.5 65.1-14.9 14.9-32 14.3-52.1-1.4-2.8-2.2-12.6-9.6-15.1-12.1-2.9-2.9-4.5-5-5.9-7.2-1.2-2-.9-13.6-2.6-16.3-4.4-7.3-5.3.6-11-5.8-7.9-8.6-17.4-25.9-12.7-56.5 7.6-49.6 46.9-55.4 76-49.9 29.3 5.6 44.3 22.2 49.1 44.3Z"></path><path fill="#000" d="M111.7 177.4c-2.3-3.8-5.2-7.2-7.9-10.7-2.7-3.7-4.9-7.6-6.7-11.8-10.2-24.7-8.7-57 9.4-77.8 12.4-14.2 32-18.9 50-17.9 18 1.1 36.7 5.7 50 18.7 7.7 7.5 12.6 17.5 14.8 27.9.7 3.3.2 6.9-.6 10-2.3 8.7-4.5 17-4.7 26 .1 13.4-.3 27.1-4.2 40-2.8 8.6-6.1 17.2-11.3 24.7-5.4 7.6-13.5 13.7-22.8 15.5-18.7 3.8-36.2-8-48.6-20.8-.5-.6.2-1.3.8-.9 7.1 5.4 14.4 10.4 22.3 13.8 22.8 10.5 41.7.8 51.7-21.2 8.4-16 10.8-33.3 10.1-51.2 0-4.5.2-9 .8-13.5.6-6.5 2.8-13 2.7-19.4-1.7-10.4-6.5-20.4-13.7-28.1-17.1-18.1-49.9-23.4-72.9-15.2-27.1 9.6-34.4 36.9-35.9 63-1 15.6 3.6 30.9 15.4 41.6l4.7 4.9c1.6 2.2-1.8 4.8-3.4 2.4Z"></path><path fill="#fff" d="M123.5 145.6s-3.1-15-17.7-13.2c-12.6 1.6-17 31.8 11.6 40.2"></path><path fill="#000" d="M116.1 159.5c-2.3-1.3-3.9-3.5-4-6.2.1-2 .4-4.3-.1-6.3-.3-1.9-2.3-2.4-3.8-2.3-1.6.3-2.6 2.3-2.9 3.9 0 .1-.1.4-.1.5-.1.5-.9.5-1.1 0-1.3-3.9 1.6-8.2 5.8-7.7 5.9.4 6.7 6.6 5.6 11.3-.6 2 .2 3.8 1.3 5.5l.2.3c.5.6-.3 1.4-.9 1ZM196.1 135c1.5 7.1 4.3 13.7 7.8 19.9 3.1 7.6-4.9 14.8-12 14.5-.8 0-.9-1.1-.2-1.3 4.5-1.4 8.6-4.4 9.3-9 .3-1.4-.1-2.6-.8-3.8-3.3-6.2-5.3-13.3-4.8-20.3 0-.5.7-.5.7 0Z"></path><path fill="#000" d="M123 145.7c-2.3-5.9-7.3-11.5-14-11.4-.6-.1-1.6.1-2.2.1-1.7.1-3.1.7-4.4 1.9-6.4 6.4-5.3 17.7-.1 24.8 1.8 2.5 4.1 4.7 6.7 6.5 2.6 1.8 5.5 3.2 8.6 4.4.7.2.4 1.3-.3 1.2-6.7-1.4-13.1-4.7-17.5-10.2-6.8-8.2-8.2-21.9-.1-29.9 1.8-1.6 4.3-2.8 6.8-2.8.8 0 2-.2 2.8 0 4.2.2 8.2 2.3 10.8 5.6 2.3 2.8 3.6 6.2 4 9.6 0 .6-.9.8-1.1.2Z"></path></svg><svg xmlns="http://www.w3.org/2000/svg" width="306" height="306" fill="none" style="z-index: 5; position: absolute; pointer-events: none;"><path fill="#000" d="M227.2 91.1c6.8-5.9 16.8-14.8 6.5-27.2-10.3-12.4-29.3-7.6-29.3-7.6s4-11.4-7.1-15.5c-13.4-4.9-51.4 9.9-51.4 9.9-2.8-.1-5.5-.2-8-.2-32.8-.7-42.3 20-42.7 38.6 0 0-11.1 3.7-13.9 21.4-.9 5.7-1.8 13 .4 21.8 5.9 24 21.8 40.7 31.9 49.2 3.8-2.8-2.9-6.7-2.4-11.3-21.7-10.6-17-36.3-5.4-37.8 8.9-1.1 13.6 4.1 15.8 8.3.9 1.2-11.1-65.7 58.1-43.8 13.7 4.3 27.8 8.1 37.4 1.2 1.1 2.1 1.8 4.6 2 8.3 0 0 16.7-6.5 14.2-13.3-.8-2.3-6.1-2-6.1-2Z"></path></svg><svg xmlns="http://www.w3.org/2000/svg" width="306" height="306" fill="none" style="z-index: 6; position: absolute; pointer-events: none;"><path fill="#000" d="M163.5 138.1v.2l-.1 2.8c-.1 2.4-2.1 4.2-4.5 4.1-2.4-.1-4.2-2.2-4-4.5l.1-2.8c0-.5.2-1.1.4-1.5l8 .4c0 .4.1.8.1 1.3ZM205.3 140.3l-.1 2.6c-.1 2.2-2 3.9-4.2 3.8-2.2-.1-3.9-2-3.8-4.2l.1-2.6c0-.5.1-1 .3-1.4l7.5.3c.1.5.2 1 .2 1.5ZM173.5 124.4c2.2.3 3.9-2 3.1-4.2-.4-1.2-1.1-2.3-2.2-3-3.4-2.1-16.1-2.3-22.8 2.5-6 4.4 11.9 3.3 21.9 4.7ZM201.2 125.5c-1.8 0-2.9-2.3-2-4.2.5-1 1.2-1.9 2.2-2.4 3.1-1.5 11.4-.6 15.1 4.5 3.3 4.5-7 2-15.3 2.1Z"></path><path fill="#000" d="m169.899 138.1-16.5-.3c-2-.1-1.9-3.1.1-3l16.5 1.2c1.4.1 1.3 2.1-.1 2.1ZM209.5 139.8l-12.2.2c-2 0-2.1-2.9-.1-3h.2l12.2 1.3c.9.1.8 1.4-.1 1.5Z"></path></svg><svg xmlns="http://www.w3.org/2000/svg" width="306" height="306" fill="none" style="z-index: 7; position: absolute; pointer-events: none;"><path fill="#fff" d="M186.2 179c.1 3.3-4.8 11.7-14.2 7.8-9.1-3.7-11.8-21.1 1.2-12.8 6.6 4.4 10.8 5.1 13 5Z"></path><path fill="#000" d="M188.3 179.1c-2.7.9-5.3.1-7.8-.8-3.7-1.3-6.7-3.7-10.2-5.4-4.8-2.3-6.7.8-5.4 5.3 1.3 4.8 5.5 9 10.7 9.2 4.6.5 9.5-3.7 9.1-8.4-.4-2 2.5-2.6 3-.7-.1 3.4-2.2 5.8-4.4 7.8-4.4 3.6-11.1 2.8-15.5-.5-3.4-2.7-6.2-7-5.6-11.6.2-2 2.1-4.3 4.2-4.4 4.9-.4 7.8 2.9 11.6 5.1 3 1.7 6.4 3.8 9.9 3.5.6-.2 1 .6.4.9Z"></path><path fill="#000" d="M165.099 175.4c1.6 2.3 4.1 3.5 6.7 4.1.6.2 1.1.2 1.6.2.9 0 1.8.7 2.3 1.2 2.4 1.9 5.7 2.2 8.7 2.3.7 0 .7 1.2 0 1.1-3.2-.2-6.6-.5-9.6-2-.6-.2-.9-.4-1.4-.4-1.9.2-3.4-1-4.8-1.8-1.6-.9-3.2-1.8-5.1-2.2-.9-.2-1.4-1-1.3-1.9.2-1.4 2.2-1.8 2.9-.6Z"></path></svg><svg xmlns="http://www.w3.org/2000/svg" width="306" height="306" fill="none" style="z-index: 8; position: absolute; pointer-events: none;"></svg><svg xmlns="http://www.w3.org/2000/svg" width="306" height="306" fill="none" style="z-index: 9; position: absolute; pointer-events: none;"></svg></svg>